<svg width="46" height="30" viewBox="0 0 46 30" fill="none" xmlns="http://www.w3.org/2000/svg">
<path d="M5.11432 17.4315L11.6314 13.6466L15.1272 19.644H6.34251" fill="black"/>
<path d="M29.3902 19.6422L20.3228 3.82709L26.84 0L38.1751 19.6422" fill="black"/>
<path d="M12.7661 10.6718L19.3777 6.93251L26.6515 19.6418H19.7544V21.5131H17.8668V19.6418" fill="black"/>
<path d="M41.7288 29.9865C39.6529 29.9865 38.4215 28.9241 38.3273 27.3939H40.3123C40.3123 27.904 40.595 28.583 41.8231 28.6252C42.6742 28.6252 43.1453 28.1152 43.1453 27.7318C43.0511 27.1373 42.2941 27.095 41.5404 26.965C40.8593 26.8845 40.1918 26.7141 39.5554 26.4582C39.2318 26.2771 38.9639 26.011 38.7807 25.6886C38.5975 25.3662 38.5059 24.9998 38.5158 24.6292C38.5158 23.2679 39.6529 22.2055 41.6346 22.2055C43.5254 22.2055 44.7535 23.1834 44.8444 24.6714H42.9569C42.9569 24.2913 42.8627 23.6513 41.7288 23.6513C40.9719 23.6513 40.5008 23.7779 40.4066 24.3302C40.4066 25.0969 42.0115 25.0548 43.2395 25.3504C44.3733 25.6493 45.1303 26.3706 45.1303 27.3939C45.1303 29.2652 43.6196 29.9865 41.7288 29.9865" fill="black"/>
<path d="M1.79334 26.088C1.79334 27.277 2.83296 28.2549 3.96354 28.2549C5.19483 28.2549 6.13698 27.277 6.13698 26.088C6.13698 24.9412 5.19483 23.9211 3.96354 23.9211C3.39469 23.9404 2.85437 24.1748 2.4516 24.577C2.04882 24.9792 1.81358 25.5192 1.79334 26.088V26.088ZM3.86933 29.9996C1.79334 29.9996 0 28.2549 0 26.088C0 23.921 1.79334 22.2186 3.86933 22.2186C4.72051 22.2186 5.47748 22.4331 6.13698 22.8977V22.3031H8.02779V29.8274H6.13698V29.3595C5.57169 29.7851 4.72051 29.9996 3.86933 29.9996Z" fill="black"/>
<path d="M31.2527 26.088C31.2527 27.277 32.2923 28.2549 33.4229 28.2549C34.6542 28.2549 35.5963 27.277 35.5963 26.088C35.5963 24.9412 34.6542 23.9211 33.4229 23.9211C32.854 23.9404 32.3137 24.1748 31.9109 24.577C31.5082 24.9792 31.2729 25.5192 31.2527 26.088V26.088ZM33.3287 29.9996C31.2527 29.9996 29.4594 28.2549 29.4594 26.088C29.4594 23.921 31.2527 22.2186 33.3287 22.2186C34.1799 22.2186 34.9368 22.4331 35.5963 22.8977V22.3031H37.4871V29.8274H35.5963V29.3595C35.031 29.7851 34.1799 29.9996 33.3287 29.9996Z" fill="black"/>
<path d="M10.4556 26.0879C10.4556 27.277 11.401 28.2548 12.629 28.2548C13.7596 28.2548 14.8025 27.277 14.8025 26.0879C14.7814 25.5188 14.5455 24.9788 14.1422 24.5767C13.7389 24.1746 13.1982 23.9403 12.629 23.921C12.0545 23.9235 11.5042 24.1524 11.0973 24.5581C10.6904 24.9637 10.4599 25.5134 10.4556 26.0879V26.0879ZM12.5348 29.9995C12.0227 30.0004 11.5156 29.8995 11.0428 29.7028C10.57 29.506 10.141 29.2173 9.78067 28.8534C9.42038 28.4895 9.136 28.0576 8.944 27.5828C8.75201 27.1081 8.65623 26.6 8.66225 26.0879C8.66225 23.921 10.3614 22.2186 12.5348 22.2186C13.3828 22.2186 14.1397 22.433 14.8025 22.8976V19.7105H16.69V29.8273H14.8025V29.3594C14.1253 29.7895 13.337 30.0121 12.5348 29.9995" fill="black"/>
<path d="M22.5343 26.0879C22.5343 27.277 23.4797 28.2548 24.7078 28.2548C25.8384 28.2548 26.8812 27.277 26.8812 26.0879C26.8602 25.5188 26.6243 24.9788 26.221 24.5767C25.8177 24.1746 25.277 23.9403 24.7078 23.921C24.1333 23.9235 23.5829 24.1524 23.176 24.5581C22.7692 24.9637 22.5386 25.5134 22.5343 26.0879V26.0879ZM24.6136 29.9995C24.1015 30.0004 23.5943 29.8995 23.1215 29.7028C22.6487 29.506 22.2197 29.2173 21.8594 28.8534C21.4991 28.4895 21.2147 28.0576 21.0227 27.5828C20.8307 27.1081 20.735 26.6 20.741 26.0879C20.741 23.921 22.4401 22.2186 24.6136 22.2186C25.4615 22.2186 26.2185 22.433 26.8812 22.8976V19.7105H28.7688V29.8273H26.8812V29.3594C26.204 29.7895 25.4157 30.0121 24.6136 29.9995" fill="black"/>
<rect x="17.7778" y="21.8519" width="2.22222" height="8.14815" fill="black"/>
</svg>
