<svg width="31" height="30" viewBox="0 0 31 30" fill="none" xmlns="http://www.w3.org/2000/svg">
<path d="M10.909 15C10.909 12.2387 13.147 9.9996 15.908 9.9996C18.67 9.9996 20.909 12.2387 20.909 15C20.909 17.7613 18.67 20.0004 15.908 20.0004C13.147 20.0004 10.909 17.7613 10.909 15ZM8.20595 15C8.20595 19.254 11.654 22.7023 15.908 22.7023C20.162 22.7023 23.6109 19.254 23.6109 15C23.6109 10.746 20.162 7.29768 15.908 7.29768C11.654 7.29768 8.20595 10.746 8.20595 15ZM22.115 6.99228C22.115 7.34829 22.221 7.69634 22.418 7.99243C22.616 8.28852 22.897 8.51934 23.226 8.65571C23.555 8.79208 23.917 8.82787 24.266 8.75855C24.615 8.68924 24.936 8.51793 25.188 8.2663C25.44 8.01467 25.611 7.69401 25.681 7.34487C25.75 6.99573 25.7149 6.6338 25.5789 6.30483C25.4429 5.97587 25.212 5.69466 24.916 5.49675C24.62 5.29885 24.272 5.19314 23.916 5.193H23.9149C23.4379 5.19322 22.981 5.38284 22.643 5.7202C22.306 6.05756 22.116 6.51508 22.115 6.99228ZM9.84796 27.2096C8.38596 27.143 7.59096 26.8994 7.06296 26.6936C6.36196 26.421 5.86296 26.0963 5.33696 25.5716C4.81196 25.047 4.48695 24.5478 4.21495 23.8475C4.00895 23.3195 3.76596 22.5244 3.69896 21.0619C3.62696 19.4808 3.61195 19.0058 3.61195 15.0001C3.61195 10.9944 3.62796 10.5208 3.69896 8.93832C3.76596 7.47588 4.01095 6.68232 4.21495 6.15276C4.48795 5.45244 4.81296 4.95276 5.33696 4.4274C5.86196 3.90204 6.36096 3.57684 7.06296 3.3054C7.59096 3.09948 8.38596 2.85588 9.84796 2.7894C11.429 2.71668 11.904 2.70216 15.908 2.70216C19.912 2.70216 20.388 2.71788 21.97 2.7894C23.432 2.856 24.226 3.1014 24.756 3.3054C25.456 3.57684 25.956 3.90276 26.481 4.4274C27.006 4.95204 27.33 5.45244 27.603 6.15276C27.809 6.68076 28.052 7.47588 28.119 8.93832C28.192 10.5208 28.2059 10.9944 28.2059 15.0001C28.2059 19.0058 28.192 19.4795 28.119 21.0619C28.052 22.5244 27.808 23.3192 27.603 23.8475C27.33 24.5478 27.006 25.0475 26.481 25.5716C25.956 26.0958 25.456 26.421 24.756 26.6936C24.228 26.8996 23.432 27.1432 21.97 27.2096C20.389 27.2824 19.914 27.2969 15.908 27.2969C11.903 27.2969 11.429 27.2824 9.84796 27.2096ZM9.72395 0.09084C8.12695 0.16356 7.03595 0.41676 6.08295 0.78756C5.09595 1.17048 4.26095 1.6842 3.42595 2.51772C2.59095 3.35124 2.07895 4.188 1.69595 5.17488C1.32495 6.1284 1.07195 7.21896 0.998947 8.8158C0.924947 10.4152 0.907959 10.9265 0.907959 15C0.907959 19.0735 0.924947 19.5848 0.998947 21.1842C1.07195 22.7812 1.32495 23.8716 1.69595 24.8251C2.07895 25.8114 2.59095 26.6491 3.42595 27.4823C4.26095 28.3154 5.09595 28.8284 6.08295 29.2124C7.03795 29.5832 8.12695 29.8364 9.72395 29.9092C11.324 29.9819 11.835 30 15.908 30C19.982 30 20.493 29.9831 22.0919 29.9092C23.6889 29.8364 24.78 29.5832 25.733 29.2124C26.72 28.8284 27.556 28.3158 28.391 27.4823C29.225 26.6488 29.737 25.8114 30.121 24.8251C30.491 23.8716 30.746 22.781 30.817 21.1842C30.89 19.5836 30.907 19.0735 30.907 15C30.907 10.9265 30.89 10.4152 30.817 8.8158C30.745 7.21884 30.491 6.1278 30.121 5.17488C29.737 4.1886 29.224 3.35256 28.391 2.51772C27.557 1.68288 26.72 1.17048 25.735 0.78756C24.78 0.41676 23.6889 0.16236 22.0939 0.09084C20.4939 0.01812 19.983 0 15.909 0C11.836 0 11.324 0.01692 9.72395 0.09084Z" fill="white"/>
</svg>
