<svg width="61" height="30" viewBox="0 0 61 30" fill="none" xmlns="http://www.w3.org/2000/svg">
<path d="M17.9646 15.8922L23.8894 0H19.973L17.2617 6.89659L17.8642 0H13.747L7.82219 15.8922H11.6381L14.5503 8.19595L14.0482 15.6923L17.9646 15.8922ZM22.5839 15.8922L28.5087 0H24.7932L18.768 15.8922H22.5839ZM33.3289 14.8926L33.128 6.89659L38.7515 0.399803L33.3289 14.8926ZM60.6431 9.29541L41.5633 14.193L42.0654 12.6937H38.0486L39.354 8.89561H42.7683L43.7725 5.99704L40.3582 6.19694L41.5633 2.99852H44.8771L45.9818 0.0999506H35.2368L31.3205 4.69768L33.2284 0H29.4125L23.4877 15.8922H27.4041L29.9146 9.09551V15.8922H34.9356L16.9604 20.5898C15.0859 21.1229 13.4122 21.3562 11.9394 21.2895C10.4665 21.2228 9.32849 20.823 8.52513 20.0901C6.71757 18.7574 6.08151 16.725 6.61715 13.9931C6.95185 12.194 7.68823 10.4615 8.82639 8.79566C6.14849 11.5943 4.17353 13.9598 2.90161 15.8922C1.49574 17.9578 0.591956 19.9901 0.190276 21.9891C-0.211404 23.9882 0.0228762 25.6206 0.893216 26.8867C3.23631 30.7515 8.35773 31.018 16.2575 27.6863L60.6431 9.29541Z" fill="black"/>
</svg>
