<svg width="61" height="30" viewBox="0 0 61 30" fill="none" xmlns="http://www.w3.org/2000/svg">
<path d="M32.5233 0.102643C32.3258 0.131809 32.1359 0.858957 31.7544 1.23792C31.4756 1.51088 31.1268 1.49438 30.9421 1.83231C30.8717 1.95803 30.8944 2.17386 30.8152 2.38024C30.6589 2.7944 30.111 2.83121 30.111 3.28198C30.109 3.76916 30.5676 3.86169 30.9657 4.20786C31.2762 4.48545 31.306 4.67714 31.6817 4.81231C32.0032 4.92093 32.4807 4.5649 32.9107 4.69303C33.2632 4.79763 33.6009 4.87326 33.6809 5.23593C33.7513 5.57064 33.6759 6.08819 33.2479 6.02845C33.1036 6.01195 32.4775 5.80175 31.7099 5.88362C30.7822 5.98902 29.7242 6.29135 29.6206 7.32585C29.5635 7.90314 30.2785 8.58443 30.9689 8.44584C31.4456 8.35251 31.2203 7.78929 31.4794 7.51634C31.8203 7.16574 33.7513 8.73871 35.5454 8.73871C36.3009 8.73871 36.8629 8.54762 37.4211 7.96329C37.4734 7.91823 37.5367 7.82289 37.6174 7.81645C37.6936 7.82289 37.8262 7.89791 37.87 7.92969C39.3147 9.09112 40.4075 11.4216 45.7194 11.4482C46.4669 11.4526 47.3171 11.8096 48.0125 12.4432C48.6322 13.0161 48.9941 13.9082 49.3467 14.8126C49.8787 16.1695 50.8306 17.4898 52.2754 18.9584C52.3539 19.0373 53.5435 19.9617 53.6386 20.0305C53.6533 20.0412 53.741 20.2494 53.7104 20.3656C53.6754 21.2471 53.5473 23.8081 55.4568 23.9243C55.9234 23.9477 55.8015 23.6194 55.8015 23.3941C55.8003 22.9476 55.7191 22.5044 55.9538 22.0472C56.2752 21.4192 55.2719 21.1302 55.3011 19.7718C55.322 18.7591 54.4711 18.9319 54.0399 18.1603C53.7911 17.7133 53.57 17.4764 53.5859 16.9296C53.683 13.8531 52.9312 11.8312 52.5566 11.3345C52.264 10.96 52.022 10.8113 52.2891 10.6379C53.8832 9.58453 54.2444 8.60595 54.2444 8.60595C55.0923 6.61399 55.8542 4.79461 56.9052 3.99324C57.1164 3.82749 57.6595 3.42238 57.9922 3.26368C58.9734 2.80124 59.489 2.52064 59.7742 2.24386C60.2244 1.80495 60.5812 0.888727 60.1487 0.33356C59.6117 -0.351548 58.6824 0.191952 58.273 0.435341C55.3431 2.17386 54.9113 5.24096 53.8965 7.00261C53.0868 8.40963 51.7703 9.44353 50.5932 9.52801C49.7118 9.59339 48.76 9.41497 47.8132 8.99899C45.51 7.98923 44.25 6.6858 43.9515 6.45508C43.333 5.97756 38.5298 1.26145 34.6372 1.06896C34.6372 1.06896 34.154 0.101235 34.0327 0.0859474C33.7483 0.0491374 33.4569 0.663241 33.2479 0.73505C33.0516 0.79982 32.7215 0.0700567 32.5233 0.102441V0.102643ZM15.3888 28.248C15.0225 28.2392 14.7113 27.9388 14.7113 27.5673L14.7125 15.4261H10.7107V28.8088C10.7107 29.4654 11.2421 30 11.8945 30H18.8878C19.5443 30 20.0695 29.4654 20.0695 28.8088V15.4259H16.0715L16.0683 27.5673C16.0683 27.9388 15.7571 28.2392 15.3888 28.248V28.248ZM28.7856 15.4261H22.7303C22.0126 15.4261 21.429 16.0088 21.429 16.7327V30H25.4347V17.8302C25.4353 17.7418 25.4532 17.6545 25.4875 17.5731C25.5218 17.4917 25.5719 17.4179 25.6347 17.3559C25.6976 17.2938 25.772 17.2447 25.8538 17.2115C25.9357 17.1782 26.0232 17.1614 26.1116 17.162C26.4851 17.162 26.7854 17.4504 26.7935 17.8199V30H30.7822V17.8199C30.7872 17.4504 31.0869 17.1622 31.4603 17.1622C31.8298 17.1622 32.1361 17.4572 32.1385 17.83V30H36.1442V16.7327C36.1442 16.0088 35.5587 15.4259 34.8424 15.4259H28.7858L28.7856 15.4261ZM8.04188 26.3379H3.99901V30H0V15.4261H8.06722C8.78934 15.4261 9.35316 16.0128 9.35316 16.7387V25.0242C9.35363 25.1967 9.32005 25.3676 9.25434 25.527C9.18864 25.6865 9.09209 25.8314 8.97024 25.9535C8.8484 26.0756 8.70365 26.1724 8.54431 26.2384C8.38496 26.3044 8.21415 26.3383 8.04168 26.3381L8.04188 26.3379ZM5.35636 17.8555C5.35755 17.7654 5.34096 17.676 5.30752 17.5924C5.27408 17.5087 5.22446 17.4325 5.16151 17.3681C5.09855 17.3036 5.02349 17.2523 4.94064 17.2169C4.85779 17.1815 4.76877 17.1629 4.67869 17.162H3.99921V24.5332H4.67869C5.03191 24.5332 5.35957 24.2526 5.35636 23.8487V17.8555" fill="black"/>
<path d="M42.8581 30V26.3411H41.4986V30H37.5012V16.7327C37.5012 16.0088 38.0847 15.4259 38.8024 15.4259H45.5549C46.2738 15.4259 46.8567 16.0088 46.8567 16.7327V30H42.8581ZM42.8581 24.5358V17.8249C42.8487 17.4542 42.5502 17.1692 42.1768 17.1692C41.8071 17.1692 41.5024 17.4655 41.4986 17.8358V24.5358H42.8581" fill="black"/>
</svg>
