<svg width="37" height="30" viewBox="0 0 37 30" fill="none" xmlns="http://www.w3.org/2000/svg">
<path d="M33.1884 7.48792C33.1884 7.82609 33.1884 8.16425 33.1884 8.45411C33.1884 18.4541 25.5556 30 11.6425 30C7.343 30 3.3816 28.744 0 26.6184C0.5797 26.6667 1.2077 26.715 1.7874 26.715C5.314 26.715 8.599 25.5072 11.2077 23.4783C7.8744 23.43 5.0725 21.2077 4.1546 18.2126C4.6377 18.3092 5.0725 18.3575 5.6039 18.3575C6.2802 18.3575 6.9565 18.2609 7.5845 18.0676C4.1063 17.3913 1.4976 14.3478 1.4976 10.6763C1.4976 10.628 1.4976 10.628 1.4976 10.5797C2.5121 11.1594 3.6715 11.4976 4.9275 11.5459C2.8985 10.1932 1.5459 7.8744 1.5459 5.21739C1.5459 3.81643 1.9324 2.51208 2.5604 1.40097C6.2802 5.99034 11.8841 8.98551 18.1643 9.32367C18.0193 8.79227 17.971 8.16425 17.971 7.58454C17.971 3.38164 21.3527 0 25.5556 0C27.7295 0 29.7101 0.917874 31.0628 2.36715C32.8019 2.02899 34.3961 1.40097 35.8937 0.531401C35.314 2.31884 34.1063 3.76812 32.5604 4.7343C34.1063 4.54106 35.5556 4.15459 36.9082 3.52657C35.942 5.07246 34.686 6.42512 33.1884 7.48792Z" fill="white"/>
</svg>
