<svg width="44" height="30" viewBox="0 0 44 30" fill="none" xmlns="http://www.w3.org/2000/svg">
<path fill-rule="evenodd" clip-rule="evenodd" d="M39.095 0.917647C40.931 1.41168 42.378 2.85878 42.872 4.69407C43.789 8.04702 43.754 15.0353 43.754 15.0353C43.754 15.0353 43.754 21.9883 42.872 25.3412C42.378 27.1765 40.931 28.6236 39.095 29.1176C35.742 30 22.331 30 22.331 30C22.331 30 8.95398 30 5.56598 29.0824C3.72998 28.5882 2.28297 27.1412 1.78897 25.3059C0.906971 21.9883 0.906982 15 0.906982 15C0.906982 15 0.906971 8.04702 1.78897 4.69407C2.28297 2.85878 3.76598 1.3764 5.56598 0.882228C8.91898 8.9407e-07 22.331 0 22.331 0C22.331 0 35.742 -5.96046e-08 39.095 0.917647ZM29.213 15L18.06 21.4235V8.57647L29.213 15Z" fill="white"/>
</svg>
